
Heather Mason, una adolescente y su padre Harry Mason, han estado evadiendo la fuerza de una naturaleza que no reconocen completamente. En vísperas del cumpleaños número 18 de la chica, su padre desaparece misteriosamente y poco después, Heather se da cuenta de que su identidad es falsa y que los orígenes de su vida provienen de un lugar llamado Silent Hill. Como resultado de esta revelación, ella es atraída por esa ciudad gracias a un accidente dirigido por una misteriosa mujer y un demente. Sin embargo, Heather no sabe que está a punto de entrar a una trampa mortal. 



Format                                   : Matroska
Format version                           : Version 4 / Version 2
File size                                : 3.79 GiB
Duration                                 : 1h 34mn
Overall bit rate                         : 5 725 Kbps
Encoded date                             : UTC 2013-02-05 20:06:19
Writing application                      : mkvmerge v6.0.0 ('Coming Up For Air') built on Jan 20 2013 09:52:00
Writing library                          : libebml v1.3.0 + libmatroska v1.4.0

Video
ID                                       : 1
Format                                   : AVC
Format/Info                              : Advanced Video Codec
Format profile                           : High@L4.1
Format settings, CABAC                   : Yes
Format settings, ReFrames                : 5 frames
Codec ID                                 : V_MPEG4/ISO/AVC
Duration                                 : 1h 34mn
Bit rate                                 : 5 086 Kbps
Width                                    : 1 280 pixels
Height                                   : 536 pixels
Display aspect ratio                     : 2.40:1
Frame rate mode                          : Constant
Frame rate                               : 23.976 fps
Color space                              : YUV
Chroma subsampling                       : 4:2:0
Bit depth                                : 8 bits
Scan type                                : Progressive
Bits/(Pixel*Frame)                       : 0.309
Stream size                              : 3.29 GiB (87%)
Writing library                          : x264 core 129 r2245 bc13772
Encoding settings                        : cabac=1 / ref=5 / deblock=1:0:0 / analyse=0x3:0x133 / me=umh / subme=7 / psy=1 / psy_rd=1.00:0.00 / mixed_ref=1 / me_range=16 / chroma_me=1 / trellis=1 / 8x8dct=1 / cqm=0 / deadzone=21,11 / fast_pskip=0 / chroma_qp_offset=-2 / threads=12 / lookahead_threads=2 / sliced_threads=0 / nr=0 / decimate=1 / interlaced=0 / bluray_compat=0 / constrained_intra=0 / bframes=3 / b_pyramid=2 / b_adapt=1 / b_bias=0 / direct=1 / weightb=1 / open_gop=0 / weightp=2 / keyint=250 / keyint_min=23 / scenecut=40 / intra_refresh=0 / rc_lookahead=40 / rc=2pass / mbtree=1 / bitrate=5086 / ratetol=1.0 / qcomp=0.60 / qpmin=0 / qpmax=69 / qpstep=4 / cplxblur=20.0 / qblur=0.5 / ip_ratio=1.40 / aq=1:1.00
Language                                 : English
Default                                  : Yes
Forced                                   : No

Audio
ID                                       : 2
Format                                   : AC-3
Format/Info                              : Audio Coding 3
Mode extension                           : CM (complete main)
Format settings, Endianness              : Big
Codec ID                                 : A_AC3
Duration                                 : 1h 34mn
Bit rate mode                            : Constant
Bit rate                                 : 640 Kbps
Channel(s)                               : 6 channels
Channel positions                        : Front: L C R, Side: L R, LFE
Sampling rate                            : 48.0 KHz
Bit depth                                : 16 bits
Compression mode                         : Lossy
Delay relative to video                  : 10s 300ms
Stream size                              : 434 MiB (11%)
Title                                    : Español Latino
Language                                 : Spanish
Default                                  : Yes
Forced                                   : No

Menu
00:00:00.000                             : en:00:00:00.000
00:04:41.490                             : en:00:04:41.490
00:11:38.531                             : en:00:11:38.531
00:17:09.612                             : en:00:17:09.612
00:21:29.497                             : en:00:21:29.497
00:24:04.485                             : en:00:24:04.485
00:27:59.928                             : en:00:27:59.928
00:31:28.011                             : en:00:31:28.011
00:35:24.080                             : en:00:35:24.080
00:40:50.239                             : en:00:40:50.239
00:46:50.474                             : en:00:46:50.474
00:50:35.282                             : en:00:50:35.282
00:53:56.024                             : en:00:53:56.024
00:57:47.673                             : en:00:57:47.673
01:03:52.829                             : en:01:03:52.829
01:06:30.445                             : en:01:06:30.445
01:11:29.285                             : en:01:11:29.285
01:16:35.299                             : en:01:16:35.299
01:23:00.100                             : en:01:23:00.100
01:27:21.069                             : en:01:27:21.069